<svg width="24" height="24" viewBox="0 0 24 24" fill="none" xmlns="http://www.w3.org/2000/svg">
<path d="M18 14.49C17.7348 14.49 17.4804 14.3846 17.2929 14.1971C17.1054 14.0096 17 13.7552 17 13.49C17 11.22 14.76 9.36999 12 9.36999C9.24 9.36999 7 11.22 7 13.49C7 13.7552 6.89464 14.0096 6.70711 14.1971C6.51957 14.3846 6.26522 14.49 6 14.49C5.73478 14.49 5.48043 14.3846 5.29289 14.1971C5.10536 14.0096 5 13.7552 5 13.49C5 10.12 8.14 7.37 12 7.37C15.86 7.37 19 10.12 19 13.49C19 13.7552 18.8946 14.0096 18.7071 14.1971C18.5196 14.3846 18.2652 14.49 18 14.49Z" fill="#A21D21"/>
<path d="M18 8.62C17.7348 8.62 17.4804 8.51464 17.2929 8.32711C17.1054 8.13957 17 7.88522 17 7.62C17 5.35 14.76 3.5 12 3.5C9.24 3.5 7 5.35 7 7.62C7 7.88522 6.89464 8.13957 6.70711 8.32711C6.51957 8.51464 6.26522 8.62 6 8.62C5.73478 8.62 5.48043 8.51464 5.29289 8.32711C5.10536 8.13957 5 7.88522 5 7.62C5 4.25 8.14 1.5 12 1.5C15.86 1.5 19 4.25 19 7.62C19 7.88522 18.8946 8.13957 18.7071 8.32711C18.5196 8.51464 18.2652 8.62 18 8.62Z" fill="#A21D21"/>
<path d="M16.4498 22.06C15.888 22.0463 15.3289 21.9793 14.7798 21.86C14.5146 21.8083 14.2808 21.6533 14.1298 21.4292C13.9788 21.2051 13.9231 20.9302 13.9748 20.665C14.0265 20.3998 14.1814 20.166 14.4056 20.015C14.6297 19.864 14.9046 19.8083 15.1698 19.86C15.5913 19.9483 16.0194 20.0018 16.4498 20.02C16.9798 20.02 16.9998 19.96 16.9998 19.5C16.9998 17.23 14.7598 15.38 11.9998 15.38C9.23978 15.38 6.99978 17.23 6.99978 19.5C6.99978 19.93 6.99978 20.02 7.58978 20.02C8.26441 19.977 8.93379 19.8732 9.58978 19.71C10.375 19.5066 11.1794 19.386 11.9898 19.35C12.255 19.35 12.5093 19.4553 12.6969 19.6429C12.8844 19.8304 12.9898 20.0848 12.9898 20.35C12.9898 20.6152 12.8844 20.8696 12.6969 21.0571C12.5093 21.2446 12.255 21.35 11.9898 21.35C11.315 21.3921 10.6456 21.4959 9.98978 21.66C9.19435 21.8634 8.38002 21.9841 7.55978 22.02C7.222 22.0543 6.8808 22.0144 6.56006 21.9031C6.23932 21.7917 5.94679 21.6117 5.70294 21.3754C5.45908 21.1392 5.2698 20.8525 5.14834 20.5355C5.02688 20.2184 4.97618 19.8787 4.99978 19.54C4.99978 16.16 8.13978 13.42 11.9998 13.42C15.8598 13.42 18.9998 16.16 18.9998 19.54C19.033 19.8818 18.9897 20.2267 18.8728 20.5496C18.756 20.8725 18.5686 21.1653 18.3244 21.4067C18.0801 21.6481 17.7851 21.832 17.4608 21.945C17.1365 22.058 16.7912 22.0973 16.4498 22.06Z" fill="#A21D21"/>
</svg>
