<svg width="24" height="24" viewBox="0 0 24 24" fill="none" xmlns="http://www.w3.org/2000/svg">
<g clip-path="url(#clip0_308_372)">
<path d="M22.5 11.25H21V5.25H9.75V3.75H21C21.3977 3.75046 21.779 3.90864 22.0602 4.18984C22.3414 4.47105 22.4995 4.85232 22.5 5.25V11.25Z" fill="#A21D21"/>
<path d="M18.75 15H17.25V9H6V7.5H17.25C17.6477 7.50046 18.029 7.65864 18.3102 7.93984C18.5914 8.22105 18.7495 8.60232 18.75 9V15Z" fill="#A21D21"/>
<path d="M13.5 20.25H3C2.60232 20.2495 2.22105 20.0914 1.93984 19.8102C1.65864 19.529 1.50046 19.1477 1.5 18.75V12.75C1.50046 12.3523 1.65864 11.9711 1.93984 11.6898C2.22105 11.4086 2.60232 11.2505 3 11.25H13.5C13.8977 11.2505 14.279 11.4086 14.5602 11.6898C14.8414 11.9711 14.9995 12.3523 15 12.75V18.75C14.9995 19.1477 14.8414 19.529 14.5602 19.8102C14.279 20.0914 13.8977 20.2495 13.5 20.25ZM3 12.75V18.75H13.5009L13.5 12.75H3Z" fill="#A21D21"/>
</g>
<defs>
<clipPath id="clip0_308_372">
<rect width="24" height="24" fill="white"/>
</clipPath>
</defs>
</svg>
