<svg width="24" height="24" viewBox="0 0 24 24" fill="none" xmlns="http://www.w3.org/2000/svg">
<path d="M6 20C4.93913 20 3.92172 19.5786 3.17157 18.8284C2.42143 18.0783 2 17.0609 2 16C2 12.287 3.475 8.72601 6.1005 6.1005C8.72601 3.475 12.287 2 16 2C17.0609 2 18.0783 2.42143 18.8284 3.17157C19.5786 3.92172 20 4.93913 20 6C20 7.06087 19.5786 8.07828 18.8284 8.82843C18.0783 9.57857 17.0609 10 16 10C14.9314 10.0003 13.8823 10.2859 12.9611 10.8274C12.0399 11.3689 11.28 12.1465 10.76 13.08C10.63 13.3134 10.4127 13.4856 10.1558 13.5587C9.89885 13.6319 9.62339 13.6 9.39 13.47C9.15661 13.34 8.9844 13.1227 8.91126 12.8658C8.83812 12.6088 8.87004 12.3334 9 12.1C9.69534 10.8546 10.711 9.8178 11.9418 9.09692C13.1725 8.37604 14.5737 7.99732 16 8C16.5304 8 17.0391 7.78929 17.4142 7.41421C17.7893 7.03914 18 6.53043 18 6C18 5.46957 17.7893 4.96086 17.4142 4.58579C17.0391 4.21071 16.5304 4 16 4C12.8174 4 9.76515 5.26428 7.51472 7.51472C5.26428 9.76515 4 12.8174 4 16C4 16.5304 4.21071 17.0391 4.58579 17.4142C4.96086 17.7893 5.46957 18 6 18C6.48381 18.0051 6.95308 17.8347 7.32082 17.5202C7.68857 17.2058 7.92987 16.7687 8 16.29C8.03846 16.0248 8.18069 15.7857 8.39542 15.6254C8.61015 15.465 8.87978 15.3965 9.145 15.435C9.41022 15.4735 9.64929 15.6157 9.80964 15.8304C9.96998 16.0452 10.0385 16.3148 10 16.58C9.85974 17.5375 9.37714 18.4116 8.64165 19.0405C7.90615 19.6693 6.96763 20.0102 6 20Z" fill="#A21D21"/>
<path d="M21 7H19C18.7348 7 18.4804 6.89464 18.2929 6.70711C18.1054 6.51957 18 6.26522 18 6C18 5.73478 18.1054 5.48043 18.2929 5.29289C18.4804 5.10536 18.7348 5 19 5H21C21.2652 5 21.5196 5.10536 21.7071 5.29289C21.8946 5.48043 22 5.73478 22 6C22 6.26522 21.8946 6.51957 21.7071 6.70711C21.5196 6.89464 21.2652 7 21 7Z" fill="#A21D21"/>
<path d="M6 22C5.73478 22 5.48043 21.8946 5.29289 21.7071C5.10536 21.5196 5 21.2652 5 21V19C5 18.7348 5.10536 18.4804 5.29289 18.2929C5.48043 18.1054 5.73478 18 6 18C6.26522 18 6.51957 18.1054 6.70711 18.2929C6.89464 18.4804 7 18.7348 7 19V21C7 21.2652 6.89464 21.5196 6.70711 21.7071C6.51957 21.8946 6.26522 22 6 22Z" fill="#A21D21"/>
</svg>
