<svg id="ed2900dc-9223-42f1-a3f0-f31611a78a19" data-name="Layer 1" xmlns="http://www.w3.org/2000/svg" xmlns:xlink="http://www.w3.org/1999/xlink" viewBox="0 0 462.58 121.77">
  <defs>
    <style>
      .a3f7e2cf-b85d-47e2-9f37-c75f1a8057c0 {
        fill: none;
      }

      .e7cc7396-875e-449d-8b3c-93cf5ccaadb3 {
        fill: #FFF;
      }

      .b37cccae-9acd-41cf-aa70-d0ea4354353d {
        clip-path: url(#e3c20390-f444-482c-8865-9cb5b63299de);
      }
    </style>
    <clipPath id="e3c20390-f444-482c-8865-9cb5b63299de" transform="translate(-40.41 -40)">
      <rect class="a3f7e2cf-b85d-47e2-9f37-c75f1a8057c0" width="543.37" height="199.74"/>
    </clipPath>
  </defs>
  <title>Logo INTEQC Foods</title>
  <rect class="e7cc7396-875e-449d-8b3c-93cf5ccaadb3" x="173.08" width="1.96" height="119.62"/>
  <g class="b37cccae-9acd-41cf-aa70-d0ea4354353d">
    <path class="e7cc7396-875e-449d-8b3c-93cf5ccaadb3" d="M294.55,73.18c0,2.86-.56,5-3.1,5H274.89c-7.69,0-9.61,3.53-9.61,13.45V93.9H289c2.55,0,3,2,3,4.59s-.49,4.65-3,4.65H265.28v22.63c0,1.74-2.91,3.29-6.45,3.29s-6.45-1.55-6.45-3.29V91.66c0-15.56,7.14-23.31,22.51-23.31h16.56c2.54,0,3.1,2.17,3.1,4.83" transform="translate(-40.41 -40)"/>
    <path class="e7cc7396-875e-449d-8b3c-93cf5ccaadb3" d="M348.94,103.38c0,16.5-9.06,25.62-24.25,25.62-15.57,0-24.12-9.49-24.12-25.62,0-16.55,9-25.61,24.12-25.61,16.62,0,24.25,11.17,24.25,25.61m-12.59,0c0-10.66-3.66-15.87-11.66-15.87s-11.53,5.21-11.53,15.87,3.53,15.82,11.53,15.82c8.74,0,11.66-7,11.66-15.82" transform="translate(-40.41 -40)"/>
    <path class="e7cc7396-875e-449d-8b3c-93cf5ccaadb3" d="M402.51,103.38c0,16.5-9.05,25.62-24.24,25.62-15.57,0-24.12-9.49-24.12-25.62,0-16.55,9-25.61,24.12-25.61,16.62,0,24.24,11.17,24.24,25.61m-12.58,0c0-10.66-3.66-15.87-11.66-15.87s-11.54,5.21-11.54,15.87,3.54,15.82,11.54,15.82c8.74,0,11.66-7,11.66-15.82" transform="translate(-40.41 -40)"/>
    <path class="e7cc7396-875e-449d-8b3c-93cf5ccaadb3" d="M441.4,79.7V63.45c0-1.68,2.91-3.16,6.32-3.16s6.33,1.48,6.33,3.16v46.14a74.26,74.26,0,0,0,1.73,15c.37,1.74-2.17,3.35-5.52,4-3.35.44-6.45-.49-6.94-2.17l-.13-.37a23.93,23.93,0,0,1-12,3c-15.93,0-22.63-12.9-22.63-24.31,0-13.71,5-26.91,22.63-26.91A26.24,26.24,0,0,1,441.4,79.7m-9.93,39.37c4.47,0,7.82-2.85,10-6.63-.06-1.06-.06-2.36-.06-3.47V94.27c-2.61-4.34-5.4-6.57-9.93-6.57-9.48,0-10.17,9.42-10.17,16.86,0,7.82,2.73,14.51,10.17,14.51" transform="translate(-40.41 -40)"/>
    <path class="e7cc7396-875e-449d-8b3c-93cf5ccaadb3" d="M503,115c-.31,9.8-10.41,14-20.27,14-6.45,0-14-1.56-19.29-5.28-1.49-1-1.05-3.65.31-5.7,2-2.73,5-4,7.19-2.17,2,1.67,7.63,3.41,12.47,3.41,3.59,0,6.82-1.18,6.94-4.65.13-4.71-5-6-8.93-7.07-9.24-2.61-19.28-5.71-18.66-15.38.68-10.23,9.86-14.26,20.09-14.26a38.5,38.5,0,0,1,17.49,4.28c2.35,1.24,2.1,3.47.86,5.7-1.36,2.73-4.09,4-6.38,3-3.6-1.55-9.55-3.6-14-3.6-3.1,0-5.51,1.37-5.51,5.4,0,2.29,2,3.34,8.37,5.14,9.05,2.61,19.72,6.27,19.28,17.18" transform="translate(-40.41 -40)"/>
    <path class="e7cc7396-875e-449d-8b3c-93cf5ccaadb3" d="M98.58,159.49c-.86,0-1.58-.37-1.58-.8V145.35c0-.42.72-.78,1.58-.78s1.58.36,1.58.78v13.34c0,.43-.7.8-1.58.8" transform="translate(-40.41 -40)"/>
    <path class="e7cc7396-875e-449d-8b3c-93cf5ccaadb3" d="M115.62,158.69c0,.43-.7.8-1.57.8s-1.57-.37-1.57-.8v-8.1c0-2.6-.82-3.61-3-3.61s-3,1-3,3.61v8.1c0,.43-.72.8-1.57.8s-1.57-.37-1.57-.8v-8.1c0-5.5,4-6,6.15-6,4.14,0,6.16,2.19,6.16,6Z" transform="translate(-40.41 -40)"/>
    <path class="e7cc7396-875e-449d-8b3c-93cf5ccaadb3" d="M129.17,145.88c0,.7-.14,1.22-.76,1.22h-3.29v11.59c0,.43-.71.8-1.57.8s-1.57-.37-1.57-.8V147.1h-3.29c-.62,0-.74-.52-.74-1.22s.12-1.18.74-1.18h9.72c.62,0,.76.53.76,1.18" transform="translate(-40.41 -40)"/>
    <path class="e7cc7396-875e-449d-8b3c-93cf5ccaadb3" d="M141.92,158.13c0,.68-.14,1.22-.74,1.22h-4.35c-4.46,0-5.79-2.94-5.79-7.32,0-3.58.88-7.33,5.79-7.33h4.35c.6,0,.74.53.74,1.18s-.14,1.22-.74,1.22h-4.35c-1.83,0-2.46,1.15-2.62,3.82h6.06c.62,0,.74.5.74,1.12s-.12,1.13-.74,1.13h-6.06c.16,2.69.77,3.76,2.62,3.76h4.35c.6,0,.74.55.74,1.2" transform="translate(-40.41 -40)"/>
    <path class="e7cc7396-875e-449d-8b3c-93cf5ccaadb3" d="M157.61,160.56a1.15,1.15,0,0,1-1.21,1.21c-1.21,0-3.43-.35-3.94-2.3-.17,0-.49,0-.74,0-4.29,0-6.65-2.66-6.65-7.42s2.46-7.4,6.65-7.4,6.61,2.72,6.61,7.4c0,3.1-1,5.32-3,6.52a1.27,1.27,0,0,0,1.16.76,1.18,1.18,0,0,1,1.14,1.21m-5.89-3.51c2.35,0,3.47-1.67,3.47-5s-1.12-5-3.47-5-3.51,1.69-3.51,5c0,2.45.67,5,3.51,5" transform="translate(-40.41 -40)"/>
    <path class="e7cc7396-875e-449d-8b3c-93cf5ccaadb3" d="M173.72,156.09c-.94,2.19-2.92,3.41-5.74,3.41-4.59,0-6.49-2.85-6.49-7.47s1.93-7.46,6.49-7.46a5.85,5.85,0,0,1,5.66,3.29c.26.59-.56,1.12-.9,1.27s-1.75.34-1.94-.23A2.74,2.74,0,0,0,168,147c-2.82,0-3.35,2.25-3.35,5.05,0,2.58.4,5.06,3.35,5.06a3.07,3.07,0,0,0,2.82-1.83c.29-.53,1.26-.49,1.77-.33.79.24,1.33.77,1.15,1.16" transform="translate(-40.41 -40)"/>
    <path class="e7cc7396-875e-449d-8b3c-93cf5ccaadb3" d="M160,47.17a24.42,24.42,0,0,1,0,34.63,24.7,24.7,0,0,1-30.15,3.64,25,25,0,0,1-4.65-3.63,24.43,24.43,0,0,1,0-34.65,24.71,24.71,0,0,1,34.8,0" transform="translate(-40.41 -40)"/>
    <path class="e7cc7396-875e-449d-8b3c-93cf5ccaadb3" d="M45.67,128.77A17.91,17.91,0,0,0,71,154.12l22.41-22.38a11,11,0,0,1,7.82-3.24h55.35a17.9,17.9,0,0,0,0-35.8H93.77a28.87,28.87,0,0,0-20.48,8.48Z" transform="translate(-40.41 -40)"/>
  </g>
</svg>
