<svg width="46" height="46" viewBox="0 0 46 46" fill="none" xmlns="http://www.w3.org/2000/svg">
<path d="M21.0833 15.5249C22.0417 15.3333 22.8083 14.1833 22.425 13.2249C22.2333 12.2666 21.0833 11.4999 20.125 11.8833C14.95 13.0333 11.5 17.6333 11.5 22.9999C11.5 29.3249 16.675 34.4999 23 34.4999C28.9417 34.4999 33.925 29.8999 34.5 23.9583C34.6917 22.9999 33.7333 22.0416 32.775 21.8499C31.8167 21.6583 30.8583 22.6166 30.6667 23.5749C30.2833 27.4083 26.8333 30.6666 23 30.6666C18.7833 30.6666 15.3333 27.2166 15.3333 22.9999C15.3333 19.3583 17.6333 16.2916 21.0833 15.5249Z" fill="#A21D21"/>
<path d="M40.2497 21.0833C39.0997 21.0833 38.333 21.85 38.333 23C38.333 31.4333 31.433 38.3333 22.9997 38.3333C14.5663 38.3333 7.66634 31.4333 7.66634 23C7.66634 14.95 13.9913 8.24164 22.0413 7.66664C23.1913 7.66664 23.958 6.70831 23.7663 5.55831C23.7663 4.40831 22.808 3.64164 21.658 3.83331C11.6913 4.59997 3.83301 12.8416 3.83301 23C3.83301 33.5416 12.458 42.1666 22.9997 42.1666C33.5413 42.1666 42.1663 33.5416 42.1663 23C42.1663 21.85 41.208 21.0833 40.2497 21.0833Z" fill="#A21D21"/>
<path d="M26.6413 16.6751L21.658 21.6584C20.8913 22.4251 20.8913 23.5751 21.658 24.3417C22.0413 24.7251 22.6163 24.9167 22.9997 24.9167C23.383 24.9167 23.958 24.7251 24.3413 24.3417L29.3247 19.3584L32.583 20.3167C32.7747 20.3167 32.9663 20.3167 33.158 20.3167C33.733 20.3167 34.1163 20.1251 34.4997 19.7417L41.9747 12.0751C42.358 11.6917 42.5497 10.9251 42.5497 10.3501C42.5497 9.77506 41.9747 9.20006 41.3997 9.0084L37.9497 7.8584L36.7997 4.4084C36.608 3.8334 36.033 3.2584 35.458 3.2584C34.883 3.06673 34.1163 3.2584 33.733 3.8334L26.258 11.5001C25.683 12.0751 25.4913 12.8417 25.8747 13.4167L26.6413 16.6751ZM34.1163 8.81673L34.6913 10.1584C34.883 10.7334 35.2663 11.1167 35.8413 11.3084L37.183 11.8834L32.583 16.4834L30.283 15.7167L29.5163 13.4167L34.1163 8.81673Z" fill="#A21D21"/>
</svg>
