<svg width="340" height="303" viewBox="0 0 340 303" fill="none" xmlns="http://www.w3.org/2000/svg">
<g clip-path="url(#clip0_933_697)">
<path d="M229.23 110.85L229.195 110.829L229.16 110.808C225.254 108.509 221.775 105.735 218.48 102.439C196.045 79.9987 196.072 43.8112 218.461 21.6498C240.873 -0.533885 277.093 -0.565893 299.791 21.6496C303.008 24.871 305.819 28.6055 308.201 32.4161C321.708 54.3236 318.691 83.5057 299.784 102.427C280.604 121.368 251.397 124.387 229.23 110.85Z" stroke="white" stroke-opacity="0.05" stroke-width="10"/>
<path d="M16.8668 286.068C1.0444 270.242 1.0444 244.707 16.8668 228.881L86.949 158.782C99.5049 146.223 116.529 138.658 135.467 138.658H294.675C317.051 138.658 335.127 156.737 335.127 179.121C335.127 201.505 317.051 219.584 294.675 219.584H154.257C145.307 219.584 136.927 223.162 130.915 229.176L74.0369 286.068C58.2151 301.893 32.6885 301.893 16.8668 286.068Z" stroke="white" stroke-opacity="0.05" stroke-width="10"/>
</g>
<defs>
<clipPath id="clip0_933_697">
<rect width="340" height="303" fill="white"/>
</clipPath>
</defs>
</svg>
