<svg width="46" height="46" viewBox="0 0 46 46" fill="none" xmlns="http://www.w3.org/2000/svg">
<path fill-rule="evenodd" clip-rule="evenodd" d="M15.0562 22.9999C15.0562 18.6821 18.6978 15.3333 22.9986 15.3333C27.2996 15.3333 30.9413 18.6821 30.9413 22.9999C30.9413 27.3178 27.2996 30.6666 22.9986 30.6666C18.6978 30.6666 15.0562 27.3178 15.0562 22.9999ZM22.9986 19.1666C20.6436 19.1666 18.8895 20.9665 18.8895 22.9999C18.8895 25.0333 20.6436 26.8333 22.9986 26.8333C25.3538 26.8333 27.1079 25.0333 27.1079 22.9999C27.1079 20.9665 25.3538 19.1666 22.9986 19.1666Z" fill="#A21D21"/>
<path fill-rule="evenodd" clip-rule="evenodd" d="M2.01268 22.4007C4.83875 13.8149 13.2035 7.66675 22.9998 7.66675C32.7963 7.66675 41.1612 13.815 43.9871 22.4009L44.1844 23.0001L43.9871 23.5994C41.161 32.1853 32.7963 38.3334 23 38.3334C13.2035 38.3334 4.83869 32.1851 2.01266 23.5992L1.81543 23.0001L2.01268 22.4007ZM5.86397 23.0001C8.34447 29.6595 15.0452 34.5001 23 34.5001C30.9546 34.5001 37.6552 29.6595 40.1358 23.0001C37.6554 16.3406 30.9546 11.5001 22.9998 11.5001C15.0452 11.5001 8.34451 16.3406 5.86397 23.0001Z" fill="#A21D21"/>
</svg>
