<svg width="18" height="19" viewBox="0 0 18 19" fill="none" xmlns="http://www.w3.org/2000/svg">
<path d="M10.875 7.50781V10.2812C10.875 10.3594 10.7969 10.3984 10.7188 10.3984H10.2891C10.25 10.3984 10.2109 10.3594 10.1719 10.3594L8.92188 8.64062V10.2812C8.92188 10.3594 8.84375 10.3984 8.80469 10.3984H8.33594C8.25781 10.3984 8.21875 10.3594 8.21875 10.2812V7.50781C8.21875 7.42969 8.25781 7.39062 8.33594 7.39062H8.80469C8.84375 7.39062 8.88281 7.39062 8.88281 7.42969L10.1719 9.14844V7.50781C10.1719 7.42969 10.2109 7.39062 10.2891 7.39062H10.7188C10.7969 7.35156 10.875 7.42969 10.875 7.50781ZM7.67188 7.35156H7.20312C7.125 7.35156 7.08594 7.42969 7.08594 7.50781V10.2812C7.08594 10.3594 7.125 10.3984 7.20312 10.3984H7.67188C7.71094 10.3984 7.78906 10.3594 7.78906 10.2812V7.50781C7.78906 7.42969 7.71094 7.35156 7.67188 7.35156ZM6.57812 9.69531H5.36719V7.50781C5.36719 7.42969 5.32812 7.35156 5.25 7.35156H4.78125C4.74219 7.35156 4.66406 7.42969 4.66406 7.50781V10.2812C4.66406 10.3203 4.70312 10.3203 4.70312 10.3594C4.74219 10.3594 4.74219 10.3984 4.78125 10.3984H6.57812C6.65625 10.3984 6.69531 10.3203 6.69531 10.2812V9.8125C6.69531 9.77344 6.65625 9.69531 6.57812 9.69531ZM13.2188 7.35156H11.4219C11.3438 7.35156 11.3047 7.42969 11.3047 7.50781V10.2812C11.3047 10.3203 11.3438 10.3984 11.4219 10.3984H13.2188C13.2578 10.3984 13.3359 10.3594 13.3359 10.2812V9.8125C13.3359 9.77344 13.2578 9.69531 13.2188 9.69531H12.0078V9.22656H13.2188C13.2578 9.22656 13.3359 9.1875 13.3359 9.10938V8.64062C13.3359 8.60156 13.2578 8.52344 13.2188 8.52344H12.0078V8.05469H13.2188C13.2578 8.05469 13.3359 8.01562 13.3359 7.9375V7.50781C13.3359 7.42969 13.2578 7.35156 13.2188 7.35156ZM17.75 3.95312V15.0859C17.7109 16.8438 16.3047 18.2891 14.5469 18.25H3.41406C1.65625 18.25 0.210938 16.8438 0.25 15.0859V3.91406C0.25 2.19531 1.65625 0.75 3.41406 0.75H14.5859C16.3047 0.789062 17.75 2.19531 17.75 3.95312ZM15.3281 8.75781C15.3281 5.90625 12.4766 3.5625 8.96094 3.5625C5.44531 3.5625 2.59375 5.90625 2.59375 8.75781C2.59375 11.2969 4.85938 13.4453 7.90625 13.8359C8.64844 13.9922 8.57031 14.2656 8.41406 15.2812C8.375 15.4375 8.25781 15.9062 8.96094 15.6328C9.625 15.3594 12.6328 13.4844 13.9609 11.9219C14.8984 10.9062 15.3281 9.89062 15.3281 8.75781Z" fill="#333333"/>
</svg>
