<svg width="19" height="23" viewBox="0 0 19 23" fill="none" xmlns="http://www.w3.org/2000/svg">
<path d="M18.75 8.70312C16.9922 8.74219 15.3516 8.19531 13.9453 7.17969V14.1719C13.9453 19.0547 8.63281 22.1016 4.41406 19.6797C0.195312 17.2188 0.195312 11.125 4.41406 8.66406C5.625 7.96094 7.07031 7.6875 8.47656 7.88281V11.3984C6.32812 10.6953 4.25781 12.6094 4.72656 14.7969C5.23438 16.9844 7.89062 17.8438 9.57031 16.3203C10.1562 15.7734 10.5078 14.9922 10.5078 14.1719V0.5H13.9453C13.9453 0.8125 13.9453 1.08594 14.0234 1.39844C14.2578 2.6875 15 3.82031 16.1328 4.52344C16.875 5.03125 17.8125 5.30469 18.75 5.30469V8.70312Z" fill="#333333"/>
</svg>
