<svg width="20" height="22" viewBox="0 0 20 22" fill="none" xmlns="http://www.w3.org/2000/svg">
<path d="M14.6539 12.486C13.1586 11.028 10.953 8.71025 9.60721 6.54203L9.64459 6.50465C10.9904 5.30839 11.3268 3.40184 10.467 1.83175C9.49506 0.0747412 7.25207 -0.598156 5.60721 0.635489C5.04646 1.0467 4.63524 1.64483 4.41094 2.31773C4.2988 2.69156 3.92496 2.91586 3.51375 2.91586C2.80347 2.80371 2.09319 3.02801 1.42029 3.47661C-0.149802 4.67287 -0.523634 7.17754 0.784777 8.67287C1.90627 9.98128 3.8502 10.6168 5.27076 9.4953C6.57917 10.6542 8.89693 12.9346 10.2801 15.514C9.00908 16.7103 8.63524 18.5794 9.53244 20.1495C10.5044 21.8691 12.7474 22.542 14.3923 21.3084C14.953 20.8972 15.3642 20.299 15.5885 19.6261C15.7007 19.2523 16.0745 19.028 16.4857 19.028C17.196 19.0654 17.9437 18.8785 18.5792 18.4299C20.1493 17.271 20.5231 14.7289 19.2147 13.2336C18.0558 11.9252 16.1119 11.3271 14.6539 12.486ZM1.12123 8.22427C-0.523634 5.79437 1.75674 4.37381 1.75674 4.37381C0.410945 6.1682 1.12123 8.22427 1.12123 8.22427ZM18.0558 17.6822C19.4016 15.8878 18.6913 13.8317 18.6913 13.8317C20.3362 16.2243 18.0558 17.6822 18.0558 17.6822Z" fill="#F9CB00"/>
</svg>
